<svg width="80" height="80" viewBox="0 0 80 80" fill="none" xmlns="http://www.w3.org/2000/svg">
<g clip-path="url(#clip0_204_92)">
<mask id="mask0_204_92" style="mask-type:luminance" maskUnits="userSpaceOnUse" x="0" y="0" width="80" height="80">
<path d="M0 0H80V80H0V0Z" fill="white"/>
</mask>
<g mask="url(#mask0_204_92)">
<mask id="mask1_204_92" style="mask-type:luminance" maskUnits="userSpaceOnUse" x="3" y="3" width="74" height="74">
<path d="M3.28125 3.28125H76.658V76.658H3.28125V3.28125Z" fill="white"/>
</mask>
<g mask="url(#mask1_204_92)">
<path d="M39.9392 76.7188C60.2184 76.7188 76.658 60.2792 76.658 40C76.658 19.7208 60.2184 3.28125 39.9392 3.28125C19.66 3.28125 3.22047 19.7208 3.22047 40C3.22047 60.2792 19.66 76.7188 39.9392 76.7188Z" fill="#2E3440"/>
<path d="M54.2583 25.6383L68.547 39.927L54.2583 54.2158L39.9695 39.927L54.2583 25.6383Z" fill="#D8DEE9"/>
<path d="M25.7389 25.6383L54.2878 54.2157L25.7384 54.2157L11.4499 39.9273L25.7389 25.6383Z" fill="#8AC0CF"/>
<path d="M39.9392 76.7188C60.2184 76.7188 76.658 60.2792 76.658 40C76.658 19.7208 60.2184 3.28125 39.9392 3.28125C19.66 3.28125 3.22047 19.7208 3.22047 40C3.22047 60.2792 19.66 76.7188 39.9392 76.7188Z" fill="url(#paint0_radial_204_92)"/>
</g>
</g>
</g>
<defs>
<radialGradient id="paint0_radial_204_92" cx="0" cy="0" r="1" gradientUnits="userSpaceOnUse" gradientTransform="translate(34.8403 27.5569) rotate(0.0750002) scale(46.7797)">
<stop stop-color="white" stop-opacity="0.231"/>
<stop offset="1" stop-color="white" stop-opacity="0"/>
</radialGradient>
<clipPath id="clip0_204_92">
<rect width="80" height="80" fill="white"/>
</clipPath>
</defs>
</svg>
