<svg width="91" height="35" viewBox="0 0 91 35" fill="none" xmlns="http://www.w3.org/2000/svg">
<g clip-path="url(#clip0_203_87)">
<path d="M3.57494 0.0096283V28.6079H10.29V33.5334H0V0.0096283H3.57494ZM22.899 14.2281V11.2132H26.2968V33.5459H22.9151V30.5185C22.4481 31.6352 21.8039 32.5037 20.9666 33.124C20.1292 33.7816 19.2757 34.0918 18.4303 34.0918C17.3272 34.0918 16.3207 33.7816 15.4109 33.1612C14.5216 32.5673 13.7212 31.6972 13.0598 30.6054C12.4041 29.5221 11.8853 28.2598 11.53 26.8833C11.1641 25.445 10.981 23.9118 10.9905 22.3671C10.9905 20.8038 11.1757 19.3026 11.538 17.9006C11.8891 16.5059 12.4081 15.2262 13.0679 14.1288C13.7232 13.0311 14.518 12.1527 15.4028 11.5482C16.3207 10.9278 17.3352 10.6176 18.4222 10.6176C19.2677 10.6176 20.1131 10.9402 20.9505 11.573C21.7878 12.2182 22.432 13.0866 22.8829 14.2033L22.899 14.2281ZM22.593 25.1091C22.8051 24.2361 22.9142 23.3117 22.9151 22.3795C22.9151 21.4118 22.8023 20.5185 22.593 19.65C22.4002 18.8143 22.105 18.0435 21.7234 17.3795C21.3427 16.7407 20.8827 16.226 20.3707 15.8658C19.8202 15.4766 19.2211 15.2776 18.6155 15.2827C17.9713 15.2827 17.3916 15.4936 16.8763 15.8782C16.3715 16.2395 15.9175 16.7495 15.5397 17.3795C15.1591 18.0403 14.8689 18.8125 14.6862 19.65C14.4865 20.5269 14.3858 21.4501 14.3883 22.3795C14.3883 23.3349 14.485 24.2406 14.6862 25.1091C14.8795 25.9776 15.1693 26.722 15.5397 27.3423C15.9142 27.9906 16.3685 28.5178 16.8763 28.8932C17.3916 29.2654 17.9713 29.4639 18.6155 29.4639C19.2596 29.4639 19.8474 29.2778 20.3707 28.8932C20.8843 28.526 21.3444 28.0027 21.7234 27.3547C22.1023 26.7018 22.3974 25.944 22.593 25.1215V25.1091ZM28.9699 33.5459V11.2132H38.1649V16.3497H32.3516V33.5334H28.9699V33.5459ZM50.4437 14.2281V11.2132H53.8254V33.5459H50.4437V30.5185C49.9928 31.6352 49.3406 32.5037 48.5113 33.124C47.6659 33.7816 46.8205 34.0918 45.967 34.0918C44.8639 34.0918 43.8575 33.7816 42.9476 33.1612C42.0583 32.5673 41.2579 31.6972 40.5965 30.6054C39.9408 29.5221 39.422 28.2598 39.0667 26.8833C38.7036 25.4442 38.5232 23.911 38.5353 22.3671C38.5353 20.8038 38.7124 19.3026 39.0748 17.9006C39.4258 16.5059 39.9449 15.2262 40.6046 14.1288C41.2599 13.0311 42.0547 12.1527 42.9396 11.5482C43.8575 10.9278 44.872 10.6176 45.9589 10.6176C46.8044 10.6176 47.6498 10.9402 48.4872 11.573C49.3245 12.2182 49.9767 13.0866 50.4196 14.2033L50.4437 14.2281ZM50.1378 25.1091C50.3444 24.2345 50.448 23.3102 50.4437 22.3795C50.4437 21.4118 50.3391 20.5185 50.1378 19.65C49.9474 18.8153 49.6549 18.0445 49.2762 17.3795C48.8908 16.738 48.4252 16.2231 47.9074 15.8658C47.3841 15.4936 46.7963 15.2827 46.1602 15.2827C45.5161 15.2827 44.9364 15.4936 44.413 15.8782C43.9082 16.2395 43.4542 16.7495 43.0764 17.3795C42.6959 18.0403 42.4056 18.8125 42.223 19.65C42.026 20.5277 41.928 21.4509 41.9331 22.3795C41.9331 23.3349 42.0297 24.2406 42.223 25.1091C42.4243 25.9776 42.7061 26.722 43.0764 27.3423C43.4509 27.9906 43.9052 28.5178 44.413 28.8932C44.9364 29.2654 45.5161 29.4639 46.1602 29.4639C46.8044 29.4639 47.3841 29.2778 47.9155 28.8932C48.4348 28.5289 48.9005 28.0054 49.2843 27.3547C49.6603 26.7008 49.9527 25.943 50.1458 25.1215L50.1378 25.1091ZM67.4167 11.2132H70.8547L65.2991 33.5459H61.0317L55.476 11.2132H58.898L63.1654 28.3101L67.4167 11.2256V11.2132ZM78.2381 10.6425C82.8517 10.6425 85.9999 16.9452 85.4041 24.315H74.1559C74.1559 26.2257 75.4281 29.9478 78.4233 29.9478C80.9998 29.9478 82.7309 26.4738 82.7309 26.4738L85.0176 29.2034C82.9644 32.5533 81.2897 34.1042 78.6568 34.1042C73.9707 34.1042 70.7984 29.5136 70.7984 22.3547C70.7984 15.8658 74.0834 10.6176 78.23 10.6176L78.2381 10.6425ZM74.172 20.444H82.3042C82.272 20.0098 81.8211 14.7864 78.2139 14.7864C74.5907 14.7864 74.2042 20.0222 74.172 20.444ZM87.6183 33.5086V0.0096283H91V33.5334H87.6183V33.5086Z" fill="#FF2D20"/>
</g>
<defs>
<clipPath id="clip0_203_87">
<rect width="91" height="35" fill="white"/>
</clipPath>
</defs>
</svg>
