<svg width="80" height="65" viewBox="0 0 80 65" fill="none" xmlns="http://www.w3.org/2000/svg">
<g clip-path="url(#clip0_203_53)">
<mask id="mask0_203_53" style="mask-type:luminance" maskUnits="userSpaceOnUse" x="1" y="1" width="78" height="63">
<path d="M1.12485 32.5C1.12485 49.5133 18.5302 63.3055 39.9999 63.3055C61.4697 63.3055 78.8751 49.5133 78.8751 32.5C78.8751 15.487 61.4697 1.69449 39.9999 1.69449C18.5302 1.69449 1.12485 15.487 1.12485 32.5Z" fill="white"/>
</mask>
<g mask="url(#mask0_203_53)">
<path d="M1.12485 32.5C1.12485 49.5133 18.5302 63.3055 39.9999 63.3055C61.4697 63.3055 78.8751 49.5133 78.8751 32.5C78.8751 15.487 61.4697 1.69449 39.9999 1.69449C18.5302 1.69449 1.12485 15.487 1.12485 32.5Z" fill="url(#paint0_radial_203_53)"/>
</g>
<mask id="mask1_203_53" style="mask-type:luminance" maskUnits="userSpaceOnUse" x="-1" y="-2" width="82" height="69">
<path d="M-0.494934 -1.81331H80.4948V66.8133H-0.494934V-1.81331Z" fill="white"/>
</mask>
<g mask="url(#mask1_203_53)">
<path d="M39.9999 61.0183C60.6311 61.0183 77.3565 48.2501 77.3565 32.4999C77.3565 16.7499 60.6311 3.98153 39.9999 3.98153C19.3688 3.98153 2.64343 16.7499 2.64343 32.4999C2.64343 48.2501 19.3688 61.0183 39.9999 61.0183Z" fill="#777BB3"/>
</g>
<mask id="mask2_203_53" style="mask-type:luminance" maskUnits="userSpaceOnUse" x="-1" y="-2" width="82" height="69">
<path d="M-0.494934 -1.81331H80.4948V66.8133H-0.494934V-1.81331Z" fill="white"/>
</mask>
<g mask="url(#mask2_203_53)">
<path d="M22.2461 36.0358C23.9425 36.0358 25.209 35.5646 26.0103 34.6356C26.803 33.7161 27.3506 32.1231 27.6375 29.901C27.9051 27.8239 27.8032 26.3737 27.3347 25.591C26.8556 24.7917 25.8199 24.3863 24.2564 24.3863H21.5453L20.0424 36.0358H22.2461ZM13.379 50.386C13.2531 50.386 13.1336 50.3013 13.0536 50.1547C12.9735 50.0083 12.941 49.8156 12.965 49.6294L16.9482 18.7578C16.9867 18.4594 17.1603 18.2438 17.3622 18.2438H25.9469C28.6448 18.2438 30.653 19.3473 31.9152 21.5241C33.1842 23.7123 33.5761 26.771 33.0799 30.6152C32.878 32.1813 32.5307 33.6358 32.0477 34.938C31.5641 36.2417 30.9251 37.448 30.1479 38.524C29.2177 39.8355 28.1648 40.7865 27.0214 41.3461C25.8961 41.8983 24.451 42.1783 22.7261 42.1783H19.25L18.2573 49.8717C18.2188 50.1704 18.0453 50.386 17.8434 50.386H13.379Z" fill="black"/>
<path d="M21.8931 25.0216H24.2564C26.1435 25.0216 26.799 25.6454 27.0217 26.0171C27.3912 26.6343 27.461 27.9357 27.2235 29.7803C26.9566 31.8455 26.462 33.3097 25.753 34.132C25.0272 34.9737 23.8472 35.4003 22.2461 35.4003H20.5541L21.8931 25.0216ZM25.9469 17.6082H17.3621C16.9583 17.6082 16.6112 18.0395 16.5341 18.6366L12.551 49.5082C12.5029 49.8807 12.5679 50.266 12.728 50.5589C12.8883 50.8519 13.127 51.0213 13.379 51.0213H17.8433C18.2473 51.0213 18.5944 50.5901 18.6715 49.993L19.5978 42.8137H22.7262C24.4953 42.8137 25.9846 42.5231 27.1523 41.9501C28.3533 41.3623 29.4581 40.3658 30.4361 38.9882C31.2448 37.8673 31.911 36.6091 32.4158 35.2482C32.9207 33.8869 33.2835 32.3689 33.494 30.7362C34.0164 26.6898 33.592 23.4495 32.2329 21.1061C30.887 18.785 28.772 17.6082 25.9469 17.6082ZM19.5306 36.6712H22.2461C24.046 36.6712 25.3867 36.1605 26.2676 35.1389C27.1487 34.1172 27.7429 32.4119 28.0517 30.0222C28.3471 27.7279 28.2125 26.1088 27.648 25.1656C27.0827 24.2224 25.9524 23.7507 24.2564 23.7507H21.1976L19.5306 36.6712ZM25.9469 18.8791C28.5294 18.8791 30.4134 19.9 31.5976 21.9421C32.7817 23.9841 33.1383 26.8345 32.6658 30.4939C32.4714 32.0014 32.1425 33.3796 31.6795 34.6283C31.2159 35.8777 30.6106 37.0202 29.8625 38.0562C28.9711 39.3129 27.9808 40.2084 26.8911 40.7417C25.8014 41.2766 24.4134 41.5428 22.7262 41.5428H18.9022L17.8433 49.7505H13.379L17.3621 18.8791H25.9469Z" fill="white"/>
<path d="M43.3159 42.1783C43.1899 42.1783 43.0705 42.0936 42.9905 41.947C42.9102 41.8007 42.8777 41.6082 42.9018 41.4218L44.6637 27.7623C44.8313 26.4633 44.79 25.5309 44.5475 25.1369C44.399 24.8961 43.953 24.4922 42.6342 24.4922H39.4422L37.2269 41.6641C37.1884 41.9627 37.0147 42.1783 36.8128 42.1783H32.3837C32.2577 42.1783 32.1383 42.0936 32.0582 41.947C31.978 41.8007 31.9455 41.6079 31.9696 41.4218L35.9527 10.5502C35.9912 10.2517 36.1649 10.0361 36.3668 10.0361H40.7959C40.9219 10.0361 41.0413 10.1208 41.1214 10.2672C41.2016 10.4138 41.234 10.6063 41.21 10.7927L40.2488 18.2438H43.6827C46.2987 18.2438 48.0726 18.9385 49.1058 20.3678C50.159 21.8259 50.4876 24.1573 50.0826 27.298L48.2294 41.6641C48.1909 41.9627 48.0174 42.1783 47.8153 42.1783H43.3159Z" fill="black"/>
<path d="M40.7959 9.40056H36.3668C35.9629 9.40056 35.6157 9.8318 35.5386 10.4289L31.5555 41.3005C31.5074 41.6731 31.5724 42.0584 31.7327 42.3513C31.893 42.6442 32.1317 42.8137 32.3837 42.8137H36.8128C37.2167 42.8137 37.564 42.3824 37.641 41.7853L39.7899 25.1275H42.6342C43.9508 25.1275 44.227 25.5511 44.2382 25.5693C44.318 25.6987 44.423 26.2982 44.2497 27.641L42.4877 41.3005C42.4396 41.6731 42.5046 42.0584 42.6649 42.3513C42.8252 42.6442 43.0639 42.8137 43.3159 42.8137H47.8153C48.2192 42.8137 48.5665 42.3824 48.6435 41.7853L50.4966 27.4193C50.9315 24.047 50.5594 21.5174 49.3913 19.9C48.2765 18.3578 46.4093 17.6082 43.6828 17.6082H40.7604L41.6241 10.9139C41.6721 10.5414 41.6073 10.1559 41.447 9.86315C41.2867 9.57022 41.0479 9.40056 40.7959 9.40056ZM40.7959 10.6714L39.737 18.8791H43.6828C46.1655 18.8791 47.8779 19.5319 48.8204 20.8358C49.7629 22.1405 50.0452 24.2546 49.6685 27.177L47.8153 41.5428H43.3159L45.0779 27.8836C45.2784 26.3297 45.2047 25.2698 44.8565 24.7047C44.5083 24.1396 43.7674 23.8566 42.6342 23.8566H39.0943L36.8128 41.5428H32.3837L36.3668 10.6714H40.7959Z" fill="white"/>
<path d="M57.0907 36.0358C58.7871 36.0358 60.0536 35.5646 60.8549 34.6356C61.6476 33.7163 62.1952 32.1233 62.4823 29.901C62.7499 27.8239 62.6479 26.3737 62.1793 25.591C61.7002 24.7917 60.6645 24.3863 59.101 24.3863H56.3899L54.887 36.0358H57.0907ZM48.2237 50.386C48.0979 50.386 47.9784 50.3013 47.8984 50.1547C47.8182 50.0083 47.7856 49.8156 47.8097 49.6294L51.7928 18.7578C51.8314 18.4594 52.0049 18.2438 52.207 18.2438H60.7915C63.4896 18.2438 65.4976 19.3473 66.76 21.5241C68.029 23.7121 68.4207 26.7708 67.9246 30.6152C67.7224 32.1813 67.3753 33.6358 66.8923 34.938C66.4087 36.2417 65.7697 37.448 64.9926 38.524C64.0623 39.8355 63.0094 40.7865 61.866 41.3461C60.7407 41.8983 59.2956 42.1783 57.5707 42.1783H54.0945L53.1022 49.8717C53.0636 50.1704 52.8901 50.386 52.688 50.386H48.2237Z" fill="black"/>
<path d="M56.7377 25.0216H59.101C60.9881 25.0216 61.6436 25.6454 61.8664 26.0171C62.236 26.6343 62.3058 27.9357 62.0681 29.7801C61.8013 31.8455 61.3065 33.3097 60.5977 34.132C59.8718 34.9737 58.6919 35.4003 57.0908 35.4003H55.3988L56.7377 25.0216ZM60.7916 17.6082H52.2069C51.8031 17.6082 51.4559 18.0395 51.3789 18.6366L47.3958 49.5082C47.3477 49.8807 47.4126 50.266 47.5728 50.5589C47.7331 50.8519 47.9718 51.0213 48.2238 51.0213H52.6881C53.0919 51.0213 53.4392 50.5901 53.5163 49.993L54.4424 42.8137H57.5708C59.3399 42.8137 60.8292 42.5231 61.997 41.9501C63.1979 41.3623 64.3031 40.3656 65.281 38.9877C66.0898 37.867 66.7557 36.6091 67.2605 35.2482C67.7654 33.8869 68.1282 32.3689 68.3386 30.7362C68.861 26.6896 68.4366 23.4493 67.0775 21.1058C65.7316 18.785 63.6168 17.6082 60.7916 17.6082ZM54.3754 36.6712H57.0908C58.8907 36.6712 60.2314 36.1605 61.1123 35.1389C61.9935 34.1172 62.5875 32.4119 62.8963 30.0222C63.1919 27.7279 63.0573 26.1088 62.4926 25.1656C61.9274 24.2224 60.797 23.7507 59.101 23.7507H56.0423L54.3754 36.6712ZM60.7916 18.8791C63.3741 18.8791 65.2581 19.9 66.4423 21.9421C67.6265 23.9841 67.9829 26.8345 67.5105 30.4939C67.316 32.0014 66.9871 33.3796 66.5241 34.6283C66.0605 35.8777 65.4552 37.0202 64.7072 38.0562C63.8157 39.3129 62.8254 40.2084 61.7357 40.7417C60.646 41.2766 59.2581 41.5428 57.5708 41.5428H53.7469L52.6881 49.7505H48.2238L52.2069 18.8791H60.7916Z" fill="white"/>
</g>
</g>
<defs>
<radialGradient id="paint0_radial_203_53" cx="0" cy="0" r="1" gradientUnits="userSpaceOnUse" gradientTransform="translate(24.4656 12.5248) scale(51.0485 76.8995)">
<stop stop-color="#AEB2D5"/>
<stop offset="0.3" stop-color="#AEB2D5"/>
<stop offset="0.75" stop-color="#484C89"/>
<stop offset="1" stop-color="#484C89"/>
</radialGradient>
<clipPath id="clip0_203_53">
<rect width="80" height="65" fill="white"/>
</clipPath>
</defs>
</svg>
