<svg width="161" height="154" viewBox="0 0 161 154" fill="none" xmlns="http://www.w3.org/2000/svg">
<path d="M80.5 144.375C119.402 144.375 150.938 114.21 150.938 77C150.938 39.7898 119.402 9.625 80.5 9.625C41.5984 9.625 10.0625 39.7898 10.0625 77C10.0625 114.21 41.5984 144.375 80.5 144.375Z" fill="#8892BF"/>
<path d="M72.6472 48.125H81.0997L78.7109 60.2727H86.3061C90.4714 60.3579 93.5742 61.2482 95.6164 62.9441C97.6988 64.6396 98.3116 67.863 97.4543 72.6115L93.3503 93.7903H84.7751L88.6949 73.5653C89.1029 71.4449 88.9807 69.9401 88.3276 69.0497C87.6746 68.1594 86.2658 67.7143 84.1014 67.7143L77.3021 67.6508L72.2794 93.7903H63.8269L72.6472 48.125Z" fill="white"/>
<path fill-rule="evenodd" clip-rule="evenodd" d="M33.9153 60.2732H50.3306C55.1485 60.3151 58.6402 61.7574 60.8047 64.5977C62.9691 67.4385 63.6835 71.3179 62.9485 76.2367C62.6632 78.4847 62.0298 80.6888 61.0497 82.8515C60.1104 85.0138 58.8042 86.9638 57.1298 88.7026C55.0877 90.9072 52.9031 92.3062 50.5756 92.9005C48.2481 93.4944 45.8385 93.7908 43.348 93.7908H35.9978L33.6702 105.875H25.1562L33.9153 60.2732ZM37.4066 86.6038L41.0694 67.5872H42.3067C42.7563 67.5872 43.2255 67.5656 43.7155 67.5237C46.9827 67.4814 49.6974 67.7995 51.8621 68.4775C54.0668 69.1556 54.8019 71.7212 54.0668 76.1732C53.1692 81.4737 51.4123 84.5686 48.7994 85.4589C46.1864 86.3074 42.9192 86.7097 38.9991 86.6674H38.1416C37.8966 86.6674 37.6516 86.6457 37.4066 86.6038Z" fill="white"/>
<path fill-rule="evenodd" clip-rule="evenodd" d="M122.946 60.2732H106.531L97.7718 105.875H106.286L108.614 93.7908H115.964C118.454 93.7908 120.864 93.4944 123.191 92.9005C125.519 92.3062 127.703 90.9072 129.745 88.7026C131.42 86.9638 132.726 85.0138 133.665 82.8515C134.645 80.6888 135.279 78.4847 135.564 76.2367C136.299 71.3179 135.585 67.4385 133.42 64.5977C131.256 61.7574 127.765 60.3151 122.946 60.2732ZM113.685 67.5872L110.022 86.6038C110.267 86.6457 110.512 86.6674 110.757 86.6674H111.615C115.535 86.7097 118.802 86.3074 121.415 85.4589C124.028 84.5686 125.785 81.4737 126.683 76.1732C127.418 71.7212 126.683 69.1556 124.478 68.4775C122.313 67.7995 119.598 67.4814 116.331 67.5237C115.841 67.5656 115.372 67.5872 114.922 67.5872H113.685Z" fill="white"/>
</svg>
